Coordinates
version=1
nRows=11
nColumns=33
inDegrees=yes

Units are S.I. units (second, meters, Newtons, ...)
Angles are in degrees.

endheader
time	ground_thorax_rot_x	ground_thorax_rot_y	ground_thorax_rot_z	ground_thorax_tx	ground_thorax_ty	ground_thorax_tz	clav_prot_r	clav_elev_r	scapula_abduction_r	scapula_elevation_r	scapula_upward_rot_r	scapula_winging_r	shoulder_elv_r	plane_of_elev_r	axial_rot_r	elbow_flexion_r	pro_sup_r	wrist_flex_r	wrist_dev_r	clav_prot_l	clav_elev_l	scapula_abduction_l	scapula_elevation_l	scapula_upward_rot_l	scapula_winging_l	shoulder_elv_l	plane_of_elev_l	axial_rot_l	elbow_flexion_l	pro_sup_l	wrist_flex_l	wrist_dev_l	
7.0600	28.564017	20.357305	30.877910	-7.486958	811.107895	8.388627	13.015541	45.000000	45.000000	38.891364	45.000000	-1109.563042	-2297.433766	-90.000000	-51.426406	2153.778153	-128.638149	17.789633	17.551507	15.743335	-45.000000	-45.000000	45.000000	-43.668658	1167.877553	-2089.839560	19.620296	-45.941681	1805.211643	13.238615	13.804061	-17.633080	
7.0700	28.551880	20.165828	30.861560	-5.972421	809.598652	8.653117	13.022154	45.000000	45.000000	38.486756	45.000000	-1109.484514	-2297.334106	-90.000000	-51.506423	2153.808489	-128.023316	17.680288	17.231357	15.832086	-45.000000	-44.999999	45.000000	-43.615276	1167.745952	-2089.943875	19.678463	-45.734394	1805.074529	13.940339	13.590436	-17.634517	
7.0800	28.547064	19.976731	30.846773	-4.584273	808.150155	8.902903	13.025208	45.000000	45.000000	38.115453	45.000000	-1109.422165	-2297.246510	-90.000000	-51.574501	2153.838011	-127.448305	17.562158	16.902136	15.962480	-45.000000	-44.999999	45.000000	-43.553062	1167.630555	-2090.055934	19.736946	-45.522833	1804.938913	14.630829	13.384629	-17.639834	
7.0900	28.561659	19.746150	30.787219	-3.454095	806.843393	9.123195	13.029834	45.000000	45.000000	37.769484	45.000000	-1109.379390	-2297.275695	-90.000000	-51.526099	2153.776540	-126.970530	17.499169	16.638877	15.979074	-45.000000	-44.999997	45.000000	-43.433038	1167.539697	-2090.145400	19.787830	-45.225475	1804.830281	15.266199	13.187703	-17.649861	
7.1000	28.598217	19.497092	30.696575	-2.613443	805.674732	9.306903	13.034441	45.000000	45.000000	37.475736	45.000000	-1109.363524	-2297.376889	-90.000000	-51.406018	2153.662675	-126.583763	17.474535	16.422395	15.941253	-45.000000	-44.999996	45.000000	-43.265475	1167.470847	-2090.226679	19.834081	-44.869831	1804.734401	15.857202	13.007815	-17.665344	
7.1100	28.660975	19.230418	30.574941	-2.107527	804.649655	9.443118	13.039482	45.000000	45.000000	37.237456	45.000000	-1109.364346	-2297.537122	-90.000000	-51.227180	2153.509893	-126.286367	17.476833	16.243760	15.861599	-45.000000	-44.999992	45.000000	-43.057132	1167.428439	-2090.302943	19.877260	-44.461019	1804.652098	16.403176	12.847502	-17.687601	
7.1200	28.751397	18.959708	30.427083	-1.948576	803.750520	9.521207	13.045671	45.000000	45.000000	37.062588	45.000000	-1109.379589	-2297.717152	-90.000000	-51.028677	2153.344468	-126.058922	17.501515	16.096439	15.760973	-45.000000	-44.999986	45.000000	-42.815547	1167.405159	-2090.381355	19.918364	-44.023183	1804.569763	16.910101	12.711991	-17.715595	
7.1300	28.865438	18.687236	30.259434	-2.129774	802.950505	9.530775	13.053375	45.000000	45.000000	36.938800	45.000000	-1109.395174	-2297.880831	-90.000000	-50.846413	2153.191277	-125.872339	17.526848	15.958770	15.665527	-45.000000	-44.999974	45.000000	-42.546751	1167.406217	-2090.463819	19.952433	-43.588691	1804.491257	17.380457	12.603700	-17.750680	
7.1400	28.996797	18.424717	30.080081	-2.637597	802.226254	9.462010	13.064323	45.000000	45.000000	36.868103	45.000000	-1109.417861	-2298.010325	-90.000000	-50.697788	2153.062120	-125.697370	17.560023	15.838180	15.568881	-45.000000	-44.999954	45.000000	-42.282799	1167.425722	-2090.536156	19.981290	-43.192591	1804.418981	17.808806	12.521909	-17.791920	
7.1500	29.143717	18.172615	29.894955	-3.455536	801.558493	9.308169	13.079724	45.000000	45.000000	36.844681	45.000000	-1109.445027	-2298.092191	-90.000000	-50.595571	2152.961620	-125.501806	17.584981	15.717840	15.484140	-45.000000	-44.999917	45.000000	-42.066294	1167.463718	-2090.595200	20.010378	-42.848008	1804.363015	18.180565	12.460144	-17.837881	
7.1600	29.302587	17.937748	29.708746	-4.566469	800.933069	9.067181	13.100169	45.000000	45.000000	36.872724	45.000000	-1109.485905	-2298.120853	-90.000000	-50.544741	2152.894498	-125.254552	17.607020	15.595929	15.414609	-45.000000	-44.999852	45.000000	-41.922111	1167.518107	-2090.640256	20.047492	-42.555971	1804.319126	18.472032	12.406110	-17.883622	
